<svg width="448" height="448" viewBox="0 0 448 448" fill="none" xmlns="http://www.w3.org/2000/svg">
<path d="M392 0H56C25.0721 0 0 25.0721 0 56V392C0 422.928 25.0721 448 56 448H392C422.928 448 448 422.928 448 392V56C448 25.0721 422.928 0 392 0Z" fill="#8F0000"/>
<path d="M89.9935 206.579C90.1114 186.203 73.7152 170.002 53.3388 170.002H-0.00756836V195.002H53.3388C60.2187 195.002 65.9922 199.991 65.9922 206.871V243.121C65.9922 250 60.2188 256.002 53.3388 256.002H-0.00756836V280.002H53.3388C73.7152 280.002 89.9926 263.497 89.9926 243.12L89.9922 226.19C174.296 227.397 198.83 249.317 225.661 272.777C251.502 295.375 280.48 319.662 355.989 320.261L355.993 328.57C356.002 348.947 372.693 366 393.069 366H447.991V340H393.069C386.189 340 380.991 335.449 380.991 328.569V292.32C380.991 285.44 386.189 280 393.069 280H447.991V256H393.069C372.693 256 356.002 271.944 355.993 292.32L355.99 300.908C284.63 300.672 264.362 280.883 238.41 258.19C216.267 238.825 190.244 217.534 132.914 209.789C133.412 209.361 133.872 208.945 134.353 208.505C145.391 198.382 151.344 186.153 157.167 175.593C162.99 165.034 168.469 156.222 177.444 150.061C184.725 145.064 195.08 141.339 210.992 140.647L210.993 149.123C210.997 169.5 227.431 186.999 247.808 186.999H395.141C415.517 186.999 431.993 169.5 431.993 149.123V112.874C431.993 92.4973 415.517 75.9994 395.141 75.9994H247.808C227.431 75.9994 210.983 92.4964 210.993 112.874L210.998 121.282C191.794 122.053 177.238 126.714 166.496 134.086C153.469 143.028 146.277 155.247 140.21 166.247C134.144 177.247 129.009 187.104 121.251 194.218C114.497 200.411 105.157 205.193 89.9929 206.976L89.9935 206.579ZM247.803 100.998H395.135C402.015 100.998 406.987 105.993 406.987 112.873V149.122C406.987 156.002 402.015 160.998 395.135 160.998H247.803C240.923 160.998 234.99 156.002 234.99 149.122V112.873C234.99 105.993 240.923 100.998 247.803 100.998Z" fill="white"/>
</svg>
